<svg width="1239" height="251" viewBox="0 0 1239 251" fill="none" xmlns="http://www.w3.org/2000/svg">
<g clip-path="url(#clip0)">
<path d="M180.9 63.75C192 63.75 201.5 70.35 204.4 81.25L220.9 141.35L237.4 81.85C240.9 69.85 248.5 63.85 260.4 63.85C271.2 63.85 280.2 70.65 283.1 81.85L299.1 139.75L316 81.25C319 70.55 327.9 63.75 338.7 63.75C352.5 63.75 362 73.35 362 87.25C362 90.55 361.5 93.85 360.4 97.05L331.2 186.65C326.6 201.15 316.9 208.45 302 208.45C287.9 208.45 277.1 200.55 273 186.65L258.9 138.55L245.1 186.65C241 200.85 229.9 208.45 215.9 208.45C201 208.45 191.3 201.05 186.7 186.65L158 97.65C156.9 94.05 156.4 90.85 156.4 88.35C156.3 74.15 166.6 63.75 180.9 63.75Z" fill="#1A1A1A"/>
<path d="M408.2 54.25C399.8 54.25 393 51.85 387.6 46.65C382.5 41.55 379.8 35.05 379.8 27.15C379.8 19.35 382.5 12.85 387.6 7.65001C393 2.55001 399.8 0.150009 408.2 0.150009C416.6 0.150009 423.4 2.55001 428.5 7.75001C433.9 12.85 436.6 19.35 436.6 27.25C436.6 35.05 433.9 41.55 428.5 46.75C423.3 51.85 416.6 54.25 408.2 54.25ZM432.8 182.25C432.8 196.55 422.5 207.15 408.2 207.15C393.9 207.15 383.6 196.55 383.6 182.25V88.35C383.6 74.05 393.9 63.75 408.2 63.75C422.5 63.75 432.8 74.05 432.8 88.35V182.25Z" fill="#1A1A1A"/>
<path d="M474.5 63.75H480.5V55.65C480.5 41.35 490.5 31.25 504.9 31.25C519.2 31.25 529.3 41.25 529.3 55.65V63.75H549.1C560.7 63.75 568.6 71.55 568.6 83.25C568.6 95.15 560.8 103.05 549.1 103.05H529.3V150.35C529.3 159.25 533.4 163.85 541.5 163.85C542.9 163.85 546.4 163.55 547.5 163.55C560.2 163.55 568.6 171.35 568.6 183.55C568.6 194.15 561.6 201.95 551.8 205.15C545 207.35 536.9 208.35 528 208.35C498.8 208.35 480.7 191.85 480.7 163.75V102.85H474.7C462.8 102.85 454.9 95.05 454.9 83.05C454.7 71.55 462.6 63.75 474.5 63.75Z" fill="#1A1A1A"/>
<path d="M696.1 73.15C705 78.55 709.4 85.45 709.4 94.05C709.4 107.15 700.2 116.55 686.9 116.55C682.8 116.55 678.2 114.95 672.8 111.95C668.2 109.25 663.1 107.95 657.6 107.95C641.4 107.95 629.2 120.25 629.2 136.05C629.2 151.85 641.4 164.15 657.6 164.15C663.6 164.15 669 162.55 674.1 159.55C679.2 156.65 683.8 154.95 687.9 154.95C700.9 154.95 709.8 164.05 709.8 176.95C709.8 183.95 706.6 190.05 699.8 195.45C688.7 204.05 674.4 208.35 656.8 208.35C634.9 208.35 616.5 201.65 602.1 187.95C587.8 174.25 580.5 157.35 580.5 136.75C580.5 116.15 588.1 98.95 603 84.75C617.9 70.55 636.6 63.55 658.5 63.55C673.3 63.75 685.8 66.95 696.1 73.15Z" fill="#1A1A1A"/>
<path d="M854.6 78.65C864.6 88.65 869.5 101.95 869.5 118.45V184.15C869.5 198.45 859.5 208.55 845.1 208.55C830.8 208.55 820.7 198.55 820.7 184.15V134.05C820.7 117.05 812.6 108.35 799.6 108.35C786.6 108.35 777.7 116.75 777.4 132.75V184.15C777.4 198.45 767.4 208.55 753 208.55C738.6 208.55 728.6 198.55 728.6 184.15V38.85C728.6 24.75 738.6 14.75 753 14.75C767.4 14.75 777.4 24.75 777.4 38.85V82.65C787.4 69.95 800.9 63.75 817.4 63.75C832.4 63.75 844.9 68.65 854.6 78.65Z" fill="#1A1A1A"/>
<path d="M1059.7 40.75V126.55C1059.7 151.15 1051.9 171.15 1036.2 186.05C1020.8 200.95 1000.2 208.55 975.1 208.55C949.9 208.55 929.6 201.25 914.5 186.95C899.6 172.65 892 152.85 892 128.25V40.75C892 25.55 902.8 14.75 918 14.75C933.2 14.75 944.2 25.55 944.2 40.75V125.95C944.2 147.55 956.9 161.15 976.7 161.15C996.5 161.15 1009.2 147.65 1009.2 125.95V40.75C1009.2 26.45 1019.8 15.35 1034.6 15.35C1048.8 15.35 1059.7 25.85 1059.7 40.75Z" fill="#1A1A1A"/>
<path d="M138.4 31.45C136 25.05 131.2 19.95 125 17.05C113.8 11.95 102 9.35001 89.8 9.35001C68.5 9.35001 48.1 17.25 32.3 31.65C23.8 39.45 17 48.75 12.2 59.35C8.60002 67.15 6.30002 75.35 5.20002 83.75C3.40002 97.45 5.10002 111.55 9.90002 124.55C12.3 131.05 17.1 136.15 23.3 138.95C26.7 140.45 30.2 141.25 33.9 141.25C44 141.25 53.2 135.35 57.3 126.15C60.1 119.95 60.4 112.95 58 106.45C55.2 98.95 55.1 90.75 57.9 83.15C58.2 82.15 58.6 81.35 58.9 80.65C64 69.35 74.9 61.85 87.3 60.95C88.1 60.85 88.9 60.85 89.7 60.85C94.5 60.85 99.2 61.85 103.6 63.85C107 65.35 110.5 66.15 114.2 66.15C124.3 66.15 133.5 60.25 137.6 51.05C140.5 44.95 140.8 37.95 138.4 31.45Z" fill="#1A1A1A"/>
<path d="M130.1 93.25C127.7 86.75 122.9 81.65 116.7 78.85C113.3 77.35 109.8 76.55 106.1 76.55C96 76.55 86.8 82.45 82.7 91.65C79.9 97.85 79.6 104.85 82 111.35C84.8 118.85 84.9 127.05 82.1 134.65C81.8 135.65 81.4 136.45 81.1 137.15C76 148.45 65.1 155.95 52.7 156.85C51.9 156.95 51.1 156.95 50.3 156.95C45.5 156.95 40.8 155.95 36.4 153.95C33 152.45 29.5 151.65 25.8 151.65C15.7 151.65 6.49999 157.55 2.39999 166.75C-3.50001 179.65 2.29999 194.95 15.2 200.85C26.4 205.95 38.2 208.55 50.4 208.55C71.7 208.55 92.1 200.65 107.9 186.25C116.4 178.45 123.2 169.15 128 158.55C131.5 150.75 133.9 142.65 134.9 134.25C136.6 120.35 134.9 106.25 130.1 93.25Z" fill="#FFD500"/>
<path d="M1219 84.15C1232.3 97.65 1238.8 114.65 1238.8 134.65C1238.8 154.65 1232 172.55 1218.5 186.85C1205 201.15 1189 208.45 1170.3 208.45C1156.2 208.45 1144.3 204.15 1134.6 195.15V225.95C1134.6 240.25 1124.6 250.35 1110.2 250.35C1095.9 250.35 1085.8 240.35 1085.8 225.95V88.45C1085.8 72.15 1095 63.75 1108.3 63.75C1119.9 63.75 1128.3 70.15 1130.5 83.35C1141.6 69.35 1155.4 63.75 1171.9 63.75C1190.3 63.75 1206 70.65 1219 84.15ZM1161.6 163.85C1169.7 163.85 1176.5 161.15 1181.9 155.75C1187.3 150.05 1190 143.35 1190 135.45C1190 127.65 1187.3 121.15 1181.9 115.75C1176.5 110.15 1169.7 107.55 1161.6 107.55C1153.5 107.55 1146.7 110.25 1141.3 115.75C1135.9 121.05 1133.2 127.55 1133.2 135.45C1133.2 143.25 1135.9 150.05 1141.3 155.75C1146.7 161.15 1153.5 163.85 1161.6 163.85Z" fill="#1A1A1A"/>
</g>
<defs>
<clipPath id="clip0">
<rect width="1238.7" height="250.3" fill="white" transform="translate(0 0.150009)"/>
</clipPath>
</defs>
</svg>
